# xmcd
#
# Track frame offsets: 
#        150
#        15687
#        41595
#        68152
#        102275
#
# Disc length: 4440 seconds
#
# Revision: 0
# Processed by: cddbd v1.5.2PL0 Copyright (c) Steve Scherf et al.
# Submitted via: ExactAudioCopy v1.0b3
#
DISCID=39115605
DTITLE=Raver's Nature - Feel The Heat
DYEAR=1900
DGENRE=
TTITLE0=Feel The Heat (Short)
TTITLE1=Feel The Heat (Extended)
TTITLE2=Sparkling In Your Eyes
TTITLE3=Stroke My Love
TTITLE4=Kopierschutz
EXTD=
EXTT0=
EXTT1=
EXTT2=
EXTT3=
EXTT4=
PLAYORDER=
